<?xml version="1.0" standalone="no"?><!-- Generator: Gravit.io --><svg xmlns="http://www.w3.org/2000/svg" xmlns:xlink="http://www.w3.org/1999/xlink" style="isolation:isolate" viewBox="411.321 56.613 243.346 211.387" width="243.346" height="211.387"><defs><clipPath id="_clipPath_DmxwfOk9EMn4gNfEp6P4GXhLYskhWn5c"><rect x="411.321" y="56.613" width="243.346" height="211.387"/></clipPath></defs><g clip-path="url(#_clipPath_DmxwfOk9EMn4gNfEp6P4GXhLYskhWn5c)"><g><path d=" M 412.115 155.64 C 409.513 137.55 413.353 119.121 422.962 103.575 C 436.979 82.048 478.865 64.193 520.75 93.229 C 530.095 65.695 635.727 27.814 641.568 127.939 C 641.568 127.939 646.574 169.991 613.7 210.876 C 611.03 214.213 608.026 217.05 605.022 220.221 C 597.513 228.064 589.503 235.24 581.159 242.415 C 570.834 251.15 560.144 259.446 549.119 267.28 L 548.452 267.78 L 547.951 267.947 C 547.677 268.018 547.39 268.018 547.117 267.947 L 546.95 267.947 L 543.278 266.946 C 530.596 262.941 518.414 258.101 506.065 253.596 C 427.634 225.394 418.456 185.344 412.115 155.64 Z " fill-rule="evenodd" fill="rgb(0,0,0)" fill-opacity="0.2"/><path d=" M 424.13 150.3 C 421.578 132.19 425.477 113.76 435.143 98.235 C 449.161 76.541 491.047 58.686 532.932 87.889 C 542.11 60.188 647.742 22.474 653.75 122.432 C 653.75 122.432 658.589 164.651 625.715 205.369 C 615.595 216.66 604.724 227.252 593.174 237.075 C 582.995 245.753 572.315 253.93 561.301 261.773 L 560.467 262.44 L 560.133 262.607 C 559.859 262.678 559.572 262.678 559.298 262.607 L 558.965 262.607 C 557.738 262.225 556.515 261.836 555.293 261.439 C 542.778 257.601 530.596 252.761 518.247 248.089 C 439.816 219.887 430.638 179.837 424.13 150.3 Z " fill-rule="evenodd" fill="rgb(255,255,255)" vector-effect="non-scaling-stroke" stroke-width="1.335" stroke="rgb(207,207,207)" stroke-linejoin="round" stroke-linecap="butt" stroke-miterlimit="1.41"/><path d=" M 434.142 128.606 C 434.476 118.594 438.314 109.249 445.657 101.906 C 464.847 82.549 508.235 75.54 534.935 103.575 C 551.622 68.531 595.01 61.523 619.207 73.871 C 632.056 80.546 639.398 92.228 641.234 107.246 C 642.235 113.588 642.569 121.431 643.07 125.102 C 645.072 138.786 641.401 156.475 633.391 173.83 C 622.043 200.029 586.666 229.9 556.795 251.093 C 521.752 240.413 478.865 223.058 459.841 201.865 C 441.151 182.34 430.972 146.462 434.142 128.606 Z " fill-rule="evenodd" fill="rgb(249,74,135)"/><path d=" M 520.083 184.676 C 520.127 185.12 520.127 185.568 520.083 186.011 L 519.415 187.18 C 518.971 187.784 518.468 188.343 517.913 188.848 C 516.902 189.858 515.783 190.753 514.576 191.518 L 512.573 192.686 L 510.905 193.688 C 509.62 194.359 508.28 194.917 506.9 195.356 C 506.248 195.582 505.578 195.75 504.897 195.857 L 503.228 195.69 C 502.675 195.612 502.155 195.38 501.727 195.023 C 501.306 194.65 500.966 194.196 500.725 193.688 L 499.891 192.186 C 498.71 186.528 498.04 180.775 497.888 174.998 C 497.888 173.329 497.888 171.827 498.222 170.325 C 498.556 168.656 498.89 166.988 499.557 165.653 C 502.703 164.286 506.012 163.332 509.403 162.816 C 511.061 162.553 512.732 162.386 514.409 162.315 C 514.84 162.456 515.237 162.683 515.577 162.983 L 516.412 163.984 L 516.912 165.486 C 516.912 166.153 516.912 166.654 516.578 167.155 C 516.578 167.655 516.412 167.822 516.078 167.989 C 512.323 168.343 508.591 168.9 504.897 169.658 L 504.563 171.326 L 504.563 173.329 C 506.222 172.898 507.891 172.508 509.57 172.161 L 511.906 171.66 C 513.178 171.478 514.459 171.366 515.744 171.326 C 516.22 171.395 516.675 171.566 517.079 171.827 L 518.08 172.828 L 518.414 174.33 L 518.247 175.665 C 518.021 175.991 517.738 176.273 517.413 176.5 C 517.056 176.775 516.663 177 516.245 177.167 C 513.548 178.043 510.82 178.823 508.068 179.503 C 506.511 180.058 505.285 181.284 504.73 182.841 L 504.73 184.51 C 504.73 185.344 504.73 186.011 505.064 186.679 L 505.732 188.348 C 506.796 188.06 507.809 187.61 508.735 187.013 L 511.405 185.177 L 514.242 183.175 C 515.293 182.627 516.417 182.234 517.58 182.006 C 518.237 181.818 518.944 182.011 519.415 182.507 C 519.93 183.106 520.172 183.892 520.083 184.676 Z  M 543.445 162.315 L 543.445 163.817 L 542.945 165.152 L 542.444 166.487 C 541.93 167.782 541.539 169.123 541.276 170.492 C 540.354 174.534 539.519 178.596 538.773 182.674 C 538.215 184.417 537.603 186.142 536.937 187.847 C 536.668 188.44 536.332 189 535.936 189.516 C 535.516 190.044 535.008 190.496 534.434 190.851 C 533.933 191.192 533.363 191.42 532.765 191.518 L 531.43 191.351 C 531.019 191.182 530.669 190.891 530.429 190.517 C 529.001 183.826 526.933 177.288 524.255 170.993 L 522.252 164.651 C 522.24 164.485 522.24 164.317 522.252 164.151 L 522.419 163.15 C 522.616 162.799 522.839 162.464 523.087 162.148 C 523.701 161.584 524.447 161.183 525.256 160.98 C 525.633 160.839 526.047 160.839 526.424 160.98 L 527.258 161.815 C 528.34 163.548 529.077 165.475 529.428 167.488 L 530.262 170.826 L 530.93 174.664 L 531.597 178.168 L 531.931 179.003 C 532.071 179.457 532.238 179.903 532.432 180.338 L 532.932 180.838 L 533.266 180.171 L 533.266 179.67 L 533.433 179.003 C 533.422 178.78 533.422 178.557 533.433 178.335 L 533.767 176.833 L 533.933 175.498 C 534.472 172.047 535.029 168.598 535.602 165.152 L 536.603 162.315 C 536.79 161.934 536.957 161.545 537.104 161.147 L 537.605 159.979 C 537.791 159.622 538.015 159.287 538.272 158.978 C 538.532 158.621 538.876 158.334 539.273 158.143 L 540.775 158.644 L 541.777 159.645 C 542.132 160.015 542.467 160.405 542.778 160.813 C 543.112 161.314 543.278 161.815 543.278 162.482 L 543.445 162.315 Z  M 570.98 176.5 C 570.915 176.955 570.803 177.402 570.646 177.835 C 570.64 178.275 570.46 178.695 570.145 179.003 C 569.275 180.184 568.202 181.201 566.975 182.006 L 565.306 183.175 L 563.303 184.343 L 561.635 185.344 C 560.398 185.994 559.115 186.552 557.797 187.013 C 557.145 187.238 556.475 187.406 555.794 187.513 L 554.125 187.513 C 553.514 187.466 552.932 187.233 552.457 186.846 C 552.036 186.473 551.696 186.019 551.455 185.511 L 550.621 183.842 C 549.44 178.184 548.77 172.432 548.618 166.654 L 549.119 162.148 C 549.286 160.48 549.787 158.811 550.287 157.309 C 553.433 155.942 556.742 154.989 560.133 154.472 C 561.794 154.266 563.465 154.155 565.139 154.138 C 565.57 154.279 565.967 154.506 566.307 154.806 L 567.308 155.807 L 567.642 157.142 C 567.642 157.81 567.642 158.477 567.308 158.978 C 567.308 159.311 567.142 159.645 566.808 159.812 C 563.053 160.166 559.321 160.723 555.627 161.481 L 555.293 163.15 L 555.293 165.319 C 556.952 164.888 558.621 164.498 560.3 164.151 L 562.636 163.65 C 563.905 163.412 565.186 163.245 566.474 163.15 C 566.964 163.268 567.42 163.497 567.809 163.817 C 568.31 163.984 568.643 164.318 568.81 164.818 L 569.144 166.32 L 568.977 167.488 C 568.768 167.874 568.484 168.214 568.143 168.49 C 567.786 168.765 567.393 168.99 566.975 169.157 C 564.278 170.033 561.55 170.813 558.798 171.493 C 557.241 172.048 556.015 173.274 555.46 174.831 L 555.46 176.5 C 555.46 177.334 555.46 178.001 555.794 178.502 L 556.462 180.338 C 557.526 180.05 558.539 179.6 559.465 179.003 L 562.135 177.167 L 565.139 175.165 C 566.081 174.638 567.092 174.245 568.143 173.996 C 568.896 173.656 569.784 173.861 570.312 174.497 C 570.827 175.096 571.069 175.882 570.98 176.666 L 570.98 176.5 Z  M 599.515 177.501 L 599.515 178.335 L 599.182 179.17 C 599.182 179.503 598.848 179.67 598.681 179.837 C 597.757 180.482 596.588 180.666 595.51 180.338 C 594.778 180.154 594.094 179.812 593.508 179.336 L 591.839 177.501 L 590.17 175.832 C 587.877 174.045 585.418 172.48 582.828 171.16 L 582.828 173.162 L 582.995 174.664 L 583.328 176.166 C 583.324 177.501 583.324 178.836 583.328 180.171 C 583.328 180.671 582.995 181.005 582.828 181.339 C 582.703 181.692 582.535 182.028 582.327 182.34 C 582.149 182.603 581.922 182.829 581.66 183.008 C 581.351 183.166 581.001 183.224 580.658 183.175 C 579.657 183.311 578.653 182.935 577.988 182.173 C 577.343 181.419 576.936 180.489 576.82 179.503 C 576.701 178.395 576.645 177.281 576.653 176.166 L 576.487 172.828 L 576.487 169.157 C 576.275 167.214 576.108 165.267 575.986 163.316 L 575.485 161.147 C 575.17 159.717 574.947 158.267 574.818 156.808 L 574.985 155.306 C 574.985 154.806 575.318 154.305 575.485 153.971 C 575.736 153.47 576.075 153.018 576.487 152.636 C 576.868 152.305 577.327 152.076 577.822 151.969 C 581.189 150.964 584.66 150.348 588.168 150.133 C 589.724 150.263 591.192 150.909 592.34 151.969 C 593.868 153.488 594.813 155.497 595.01 157.643 C 595.177 158.644 595.01 159.645 594.676 160.48 C 593.993 162.446 592.849 164.22 591.338 165.653 C 590.546 166.441 589.647 167.115 588.668 167.655 C 590.789 168.771 592.85 169.996 594.843 171.326 L 596.011 172.161 L 597.346 173.162 L 598.347 174.163 L 599.348 175.498 C 599.471 176.158 599.527 176.829 599.515 177.501 Z  M 588.835 157.976 L 588.835 157.309 C 588.771 157.066 588.657 156.839 588.502 156.641 C 588.362 156.493 588.191 156.379 588.001 156.308 L 587.167 156.308 L 584.497 156.808 C 583.495 156.808 582.661 157.142 581.66 157.309 L 581.66 158.978 C 581.812 160.6 582.034 162.214 582.327 163.817 C 583.085 163.565 583.813 163.23 584.497 162.816 L 586.499 161.481 L 587.333 160.813 C 587.576 160.552 587.799 160.273 588.001 159.979 C 588.266 159.675 588.49 159.339 588.668 158.978 L 588.835 157.976 Z  M 515.41 120.596 L 515.41 121.931 L 515.577 123.433 L 515.577 125.603 L 515.744 127.772 C 515.891 128.433 516.003 129.102 516.078 129.775 L 516.078 131.777 C 516.193 134.584 515.912 137.393 515.243 140.121 C 514.935 141.546 514.369 142.903 513.575 144.126 C 513.215 144.746 512.765 145.308 512.24 145.795 C 511.656 146.275 510.972 146.617 510.237 146.796 C 509.58 146.965 508.891 146.965 508.235 146.796 C 507.625 146.561 507.06 146.222 506.566 145.795 C 505.939 145.378 505.377 144.872 504.897 144.293 C 504.475 143.76 504.085 143.203 503.729 142.624 C 503.282 144.002 502.724 145.341 502.06 146.629 C 501.705 147.252 501.255 147.815 500.725 148.298 C 500.138 148.711 499.441 148.943 498.723 148.965 C 497.55 149.051 496.38 148.758 495.385 148.131 C 494.402 147.514 493.597 146.651 493.049 145.628 C 492.544 144.812 492.204 143.905 492.048 142.958 C 491.542 141.157 491.207 139.314 491.047 137.451 L 490.713 134.614 C 490.549 131.49 490.716 128.357 491.213 125.269 L 491.547 123.1 L 492.215 120.763 C 492.475 120.114 492.811 119.498 493.216 118.928 C 493.637 118.294 494.211 117.778 494.885 117.426 L 496.553 117.426 L 497.388 118.427 L 497.888 119.762 L 497.888 121.264 C 497.974 122.94 497.862 124.62 497.555 126.27 L 497.555 126.938 C 497.227 129.821 497.005 132.716 496.887 135.615 C 496.954 136.645 497.179 137.658 497.555 138.619 C 498.256 136.74 498.705 134.776 498.89 132.778 C 499.337 129.625 499.615 126.45 499.724 123.266 C 499.885 122.623 500.233 122.042 500.725 121.598 C 501.12 121.162 501.648 120.868 502.227 120.763 L 503.896 120.93 C 504.563 121.264 504.897 121.598 505.231 122.098 L 506.232 124.101 C 506.232 124.935 506.566 125.603 506.733 126.27 L 507.067 128.606 L 507.567 130.943 C 507.859 132.937 508.362 134.895 509.069 136.783 C 509.511 133.405 509.511 129.983 509.069 126.604 C 509.025 124.765 508.914 122.928 508.735 121.097 L 508.735 118.928 L 509.069 117.593 L 509.236 116.425 C 509.236 116.091 509.57 115.757 509.737 115.59 C 509.951 115.335 510.245 115.159 510.571 115.09 C 511.238 115.09 511.906 115.09 512.573 115.59 C 513.074 115.924 513.575 116.258 513.908 116.925 C 514.401 117.37 514.749 117.951 514.91 118.594 L 515.41 120.596 Z  M 543.946 136.116 C 543.815 137.067 543.648 138.014 543.445 138.953 C 543.445 139.453 543.112 139.787 542.778 140.288 C 542.565 140.724 542.213 141.077 541.777 141.289 C 541.243 141.511 540.642 141.511 540.108 141.289 C 539.561 141.118 539.09 140.764 538.773 140.288 C 538.399 139.785 538.116 139.22 537.938 138.619 C 537.737 138.074 537.57 137.516 537.438 136.95 L 537.104 135.281 L 536.937 133.946 C 536.81 132.909 536.529 131.897 536.103 130.943 C 535.772 131.013 535.438 131.068 535.102 131.11 L 534.1 131.11 C 533.618 131.327 533.115 131.494 532.598 131.61 L 531.263 131.944 C 530.429 131.944 529.595 132.278 528.927 132.445 L 529.762 135.782 C 530.034 137.326 530.202 138.887 530.262 140.455 C 530.262 141.122 530.262 141.623 529.928 142.123 L 529.928 142.791 L 529.428 143.458 C 529.285 143.648 529.117 143.817 528.927 143.959 C 528.671 144.094 528.381 144.152 528.093 144.126 C 527.592 144.126 527.092 144.126 526.424 143.792 C 525.935 143.591 525.484 143.309 525.089 142.958 C 524.267 142.129 523.689 141.09 523.42 139.954 L 523.253 138.285 L 522.92 136.616 C 522.592 134.406 522.425 132.176 522.419 129.941 C 522.275 127.662 522.164 125.382 522.085 123.1 L 522.085 119.261 L 521.918 117.926 C 521.989 116.966 522.156 116.016 522.419 115.09 C 522.536 114.68 522.704 114.288 522.92 113.921 C 523.132 113.485 523.485 113.133 523.921 112.92 C 524.569 112.691 525.276 112.691 525.923 112.92 C 526.588 113.126 527.171 113.535 527.592 114.088 L 528.76 115.757 L 529.094 118.093 L 529.094 119.762 L 528.927 121.431 L 528.927 124.935 C 531.166 124.705 533.394 124.371 535.602 123.934 C 534.671 120.565 534.222 117.082 534.267 113.588 L 534.267 112.42 L 534.935 111.251 C 535.243 110.937 535.663 110.757 536.103 110.751 C 537.12 110.734 538.095 111.16 538.773 111.919 L 539.774 113.087 L 540.442 114.422 L 541.61 117.259 C 542.032 118.667 542.257 120.127 542.277 121.598 L 542.277 122.933 L 542.611 125.603 C 543.04 129.109 543.485 132.613 543.946 136.116 L 543.946 136.116 Z  M 572.315 134.447 L 571.647 136.116 C 571.217 136.625 570.63 136.978 569.978 137.117 C 569.543 137.232 569.094 137.289 568.643 137.284 C 568.152 137.286 567.677 137.108 567.308 136.783 C 566.948 136.395 566.665 135.942 566.474 135.448 L 566.14 133.946 L 565.64 132.611 C 565.501 132.102 565.334 131.6 565.139 131.11 L 563.637 131.11 C 562.222 131.405 560.828 131.795 559.465 132.278 L 557.463 133.112 C 556.832 133.383 556.264 133.781 555.794 134.28 C 555.527 134.554 555.352 134.904 555.293 135.281 L 555.293 137.618 L 555.127 138.786 C 554.959 139.156 554.663 139.453 554.292 139.62 C 553.926 139.802 553.531 139.915 553.124 139.954 C 552.457 139.954 551.956 139.954 551.455 139.62 C 550.086 138.782 549.167 137.373 548.952 135.782 L 548.952 132.945 C 549.347 130.987 549.793 129.04 550.287 127.105 L 551.288 123.934 L 551.956 119.095 L 552.957 114.255 C 553.489 112.876 553.99 111.485 554.459 110.083 C 554.767 109.423 555.159 108.806 555.627 108.248 C 556.11 107.648 556.743 107.187 557.463 106.913 L 559.465 107.08 C 560.116 107.263 560.735 107.544 561.301 107.914 L 562.97 109.249 L 564.138 110.918 L 564.972 112.753 L 565.64 114.589 C 567.848 120.674 569.962 126.794 571.981 132.945 L 571.981 134.28 L 572.148 134.28 L 572.315 134.447 Z  M 593.174 105.411 L 593.174 106.412 L 592.507 107.246 C 592.066 107.779 591.489 108.183 590.838 108.415 L 588.001 109.082 L 585.498 109.416 L 585.665 119.261 L 585.665 129.107 C 585.59 130.694 585.309 132.265 584.83 133.78 C 584.645 134.413 584.301 134.987 583.829 135.448 C 583.57 135.575 583.283 135.633 582.995 135.615 C 582.02 135.823 581.003 135.643 580.158 135.115 C 579.772 134.905 579.432 134.621 579.157 134.28 C 578.909 133.82 578.794 133.3 578.823 132.778 L 578.823 128.44 C 578.756 125.603 578.756 122.765 578.823 119.929 C 578.58 116.788 578.134 113.667 577.488 110.584 L 574.484 111.251 C 573.372 111.423 572.26 111.589 571.147 111.752 L 570.813 111.418 L 570.479 111.085 L 570.312 110.584 C 569.95 109.971 569.722 109.289 569.645 108.581 L 569.812 107.747 C 570.143 107.244 570.604 106.841 571.147 106.579 C 571.46 106.375 571.796 106.207 572.148 106.078 L 576.987 104.91 C 581.007 103.89 585.072 103.055 589.169 102.407 C 589.67 102.407 590.17 102.407 590.504 102.741 C 591.005 102.741 591.338 103.075 591.672 103.408 L 592.507 104.243 L 593.174 105.411 Z  M 558.965 115.256 C 558.049 117.502 557.431 119.859 557.129 122.265 L 557.129 125.436 L 558.297 125.436 L 559.465 125.269 L 560.133 125.102 C 560.559 125.038 560.961 124.866 561.301 124.601 C 561.635 124.601 561.635 124.268 561.802 124.101 L 561.802 123.6 C 561.452 121.452 560.777 119.37 559.799 117.426 L 558.965 115.423 L 558.965 115.256 Z " fill-rule="evenodd" fill="rgb(247,226,88)"/><path d=" M 432.64 128.44 L 432.64 128.273 C 432.974 119.291 436.259 110.669 441.985 103.742 C 446.583 98.152 452.407 93.698 459.007 90.726 C 464.001 88.106 469.337 86.196 474.86 85.052 C 489.874 81.786 505.549 83.606 519.415 90.225 C 524.945 93.054 530.01 96.712 534.434 101.072 L 534.935 100.238 L 535.435 99.403 C 537.865 94.897 540.896 90.743 544.447 87.055 C 547.849 83.505 551.658 80.368 555.794 77.71 C 566.903 70.584 579.809 66.764 593.007 66.696 L 594.008 66.696 C 600.46 66.786 606.866 67.797 613.032 69.7 C 620.539 72.143 627.272 76.517 632.557 82.382 C 635.992 86.33 638.602 90.926 640.233 95.899 C 641.401 99.57 642.235 103.408 642.736 107.246 L 642.736 107.914 C 643.164 110.627 643.498 113.354 643.737 116.091 L 644.238 121.431 L 644.238 123.1 L 644.572 124.435 L 644.738 125.936 L 644.738 126.938 C 645.577 133.731 645.238 140.618 643.737 147.296 C 641.952 157.056 638.747 166.501 634.225 175.331 C 629.902 184.939 623.977 193.742 616.703 201.364 C 614.2 204.201 611.697 207.038 608.86 209.708 C 602.185 216.716 594.676 223.391 587.167 229.733 C 577.988 237.409 568.31 244.751 558.297 251.76 L 557.63 252.261 L 557.296 252.428 C 557.076 252.473 556.849 252.473 556.628 252.428 L 556.295 252.428 L 552.957 251.426 C 541.655 248.059 530.518 244.161 519.582 239.745 C 506.94 234.665 494.671 228.698 482.87 221.89 L 473.525 215.715 C 468.118 211.989 463.138 207.68 458.673 202.866 L 457.838 201.865 C 454.014 197.741 450.656 193.208 447.826 188.348 C 442.53 179.551 438.486 170.059 435.811 160.146 C 433.544 151.818 432.311 143.243 432.14 134.614 C 432.14 132.611 432.14 130.442 432.64 128.44 Z  M 436.812 151.135 C 440.427 168.146 447.844 184.12 458.506 197.86 C 459.173 199.028 460.175 199.862 461.009 200.863 L 461.677 201.531 C 468.643 209.022 476.823 215.284 485.873 220.054 C 497.863 226.786 510.296 232.696 523.087 237.743 C 533.6 241.915 544.113 245.586 554.793 248.756 L 554.292 240.58 L 553.625 231.235 C 528.272 224.515 503.96 214.352 481.368 201.03 L 472.19 194.856 C 466.717 191.149 461.679 186.839 457.171 182.006 L 456.003 180.671 C 449.255 173.233 443.531 164.927 438.982 155.974 C 438.396 154.876 437.839 153.764 437.313 152.636 L 436.812 151.135 Z  M 641.902 127.772 L 641.735 128.44 C 640.201 137.149 637.39 145.583 633.391 153.471 L 632.89 154.472 C 628.508 164.087 622.527 172.889 615.202 180.505 L 607.525 188.848 C 592.011 204.403 575.084 218.481 556.962 230.901 L 556.795 230.901 L 557.797 248.423 C 570.961 239.048 583.607 228.965 595.677 218.218 C 602.394 212.032 608.799 205.516 614.868 198.694 C 619.233 193.633 623.247 188.281 626.883 182.674 C 628.761 179.618 630.434 176.44 631.889 173.162 L 632.723 171.493 C 637.295 161.376 640.332 150.633 641.735 139.62 C 642.098 135.623 642.098 131.602 641.735 127.605 L 641.902 127.772 Z  M 639.232 105.244 C 638.898 102.073 635.894 92.561 633.725 89.224 L 630.22 84.385 C 625.372 79.02 619.222 74.997 612.365 72.703 C 606.71 70.839 600.797 69.881 594.843 69.866 L 593.174 69.866 C 591.172 69.866 589.002 69.866 586.666 70.2 C 570.705 71.792 555.873 79.149 544.947 90.893 C 541.517 94.936 538.654 99.427 536.437 104.243 L 536.27 104.576 L 536.103 104.743 C 535.926 104.964 535.697 105.136 535.435 105.244 L 534.434 105.244 L 533.933 104.91 L 533.266 104.076 C 527.256 98.138 520.102 93.483 512.24 90.392 C 491.852 83.014 469.14 86.134 451.497 98.736 C 446.484 102.577 442.382 107.477 439.482 113.087 C 437.879 116.52 436.81 120.178 436.312 123.934 L 436.145 124.935 L 435.644 128.273 L 435.644 128.773 C 435.38 137.949 437.508 147.035 441.818 155.14 C 446.462 164.619 452.667 173.25 460.175 180.671 C 467.194 188.13 475.433 194.338 484.538 199.028 C 496.514 205.787 508.949 211.698 521.752 216.716 C 532.598 221.222 543.779 225.06 555.127 228.398 C 572.846 215.779 589.582 201.833 605.189 186.679 C 612.687 178.94 619.498 170.565 625.548 161.648 C 627.419 158.646 629.092 155.524 630.554 152.303 L 631.222 150.634 C 634.65 142.986 637.224 134.983 638.898 126.771 C 639.876 120.424 640.156 113.988 639.732 107.58 L 639.232 105.244 Z  M 513.575 160.813 L 514.075 160.813 C 514.743 160.813 515.243 161.147 515.744 161.314 C 517.241 162.098 518.199 163.629 518.247 165.319 L 518.247 165.653 C 518.384 166.447 518.267 167.265 517.913 167.989 L 517.58 168.823 C 517.159 169.377 516.575 169.785 515.911 169.991 C 517.904 170.27 519.47 171.837 519.749 173.83 L 519.749 175.832 C 519.676 176.124 519.564 176.405 519.415 176.666 L 518.915 177.167 C 518.003 178.123 516.85 178.814 515.577 179.17 L 513.575 179.67 L 511.072 180.338 L 510.237 180.505 L 508.902 181.005 L 508.402 181.005 L 508.235 181.172 C 507.455 181.51 506.809 182.097 506.399 182.841 L 506.065 183.842 L 506.065 185.01 L 506.232 186.011 L 506.566 186.679 C 506.907 186.528 507.242 186.361 507.567 186.178 L 508.568 185.511 C 509.425 184.989 510.26 184.432 511.072 183.842 L 511.572 183.341 C 513.03 182.377 514.599 181.593 516.245 181.005 L 517.079 180.671 L 518.247 180.671 L 519.415 180.838 C 519.727 181.015 520.009 181.24 520.25 181.506 C 521.084 182.173 521.585 183.175 521.585 184.176 L 521.585 185.511 C 521.452 186.464 521.11 187.376 520.583 188.181 L 520.25 188.515 C 519.657 189.303 518.986 190.03 518.247 190.684 L 515.41 192.686 L 513.742 193.688 L 513.408 194.021 L 511.072 195.356 C 509.227 196.291 507.261 196.965 505.231 197.359 L 502.895 197.359 C 502.542 197.233 502.206 197.065 501.893 196.858 C 501.664 196.762 501.441 196.651 501.226 196.525 L 500.892 196.191 C 500.595 195.993 500.316 195.77 500.058 195.523 C 499.816 195.261 499.593 194.983 499.39 194.689 C 499.39 194.355 499.057 194.188 498.89 193.855 L 498.556 193.02 L 498.055 191.852 C 497.842 191.14 497.674 190.416 497.555 189.683 L 497.221 188.014 C 496.998 186.184 496.831 184.347 496.72 182.507 L 496.553 179.17 C 496.559 177.501 496.559 175.832 496.553 174.163 C 496.686 171.151 497.248 168.173 498.222 165.319 L 498.222 164.985 L 498.723 164.651 L 498.89 164.485 L 499.223 164.318 L 501.393 163.316 L 503.062 162.816 L 505.398 162.148 L 506.232 161.981 C 507.935 161.582 509.663 161.303 511.405 161.147 L 513.074 160.98 L 513.575 160.98 L 513.575 160.813 Z  M 513.241 162.315 L 512.073 162.315 C 509.937 162.571 507.819 162.961 505.732 163.483 L 504.897 163.65 L 503.062 164.151 L 501.893 164.651 C 501.051 164.81 500.253 165.151 499.557 165.653 L 499.223 166.32 C 498.572 168.09 498.179 169.945 498.055 171.827 C 497.877 174.048 497.877 176.281 498.055 178.502 L 498.055 182.006 L 498.222 183.842 L 498.222 184.51 L 498.556 186.011 L 498.723 187.847 L 499.057 189.349 L 499.891 192.019 L 500.392 193.187 L 500.725 193.688 L 501.393 194.522 L 501.727 194.856 L 502.06 194.856 L 502.394 195.19 C 502.895 195.523 503.395 195.523 504.063 195.523 L 506.065 195.523 C 507.049 195.234 508 194.842 508.902 194.355 L 510.07 193.855 L 511.739 193.02 L 512.573 192.52 L 514.075 191.518 L 514.91 191.018 C 516.229 190.14 517.459 189.134 518.581 188.014 C 518.879 187.697 519.158 187.363 519.415 187.013 L 519.749 186.345 L 520.083 185.511 L 520.083 184.009 C 520.11 183.612 520.053 183.214 519.916 182.841 C 519.603 182.288 519.045 181.916 518.414 181.84 L 517.58 181.84 L 517.079 182.006 C 516.269 182.263 515.487 182.598 514.743 183.008 L 513.742 183.508 L 512.073 184.676 L 511.072 185.344 L 510.404 185.845 C 509.658 186.445 508.878 187.002 508.068 187.513 C 507.322 187.877 506.539 188.157 505.732 188.348 L 505.398 187.68 L 505.064 186.846 L 504.897 186.178 C 504.726 185.636 504.614 185.076 504.563 184.51 C 504.513 184.178 504.513 183.84 504.563 183.508 L 504.897 182.34 C 505.398 181.172 506.566 180.004 507.901 179.503 L 508.068 179.503 L 508.902 179.17 C 509.57 179.17 510.07 178.836 510.571 178.669 C 511.572 178.669 512.407 178.335 513.241 178.001 L 514.91 177.668 L 515.744 177.334 L 516.245 177.167 C 516.578 177.167 516.745 176.833 517.079 176.666 C 517.391 176.49 517.673 176.265 517.913 175.999 C 518.165 175.715 518.338 175.369 518.414 174.998 L 518.414 174.163 C 518.414 173.83 518.414 173.496 518.08 173.162 C 517.949 172.727 517.721 172.328 517.413 171.994 C 516.719 171.4 515.821 171.101 514.91 171.16 L 514.242 171.16 L 513.241 171.493 L 510.571 171.994 L 508.235 172.495 L 505.732 172.995 L 504.563 173.329 L 504.563 172.995 C 504.451 172.332 504.451 171.655 504.563 170.993 L 504.897 169.991 C 508.31 169.23 511.765 168.673 515.243 168.323 L 515.41 168.323 C 515.815 168.232 516.172 167.994 516.412 167.655 L 516.578 167.321 L 516.578 166.988 L 516.912 166.487 L 516.912 165.152 C 516.663 163.506 515.239 162.296 513.575 162.315 L 513.241 162.315 Z  M 539.44 156.641 C 540.299 156.744 541.11 157.092 541.777 157.643 L 542.945 158.644 L 543.445 159.145 L 544.447 160.813 L 544.78 161.648 L 544.78 162.148 C 544.895 163.34 544.723 164.541 544.28 165.653 L 543.612 167.321 L 543.278 168.323 L 543.278 168.656 L 542.945 169.491 L 542.444 171.493 L 542.277 172.995 L 542.11 173.663 L 541.777 175.832 L 541.443 177.334 L 541.276 178.502 L 540.942 179.837 L 540.942 180.671 L 540.442 182.34 L 539.941 184.009 L 539.44 185.678 L 538.94 186.846 L 538.439 188.014 L 537.938 189.182 C 537.27 190.314 536.358 191.283 535.268 192.019 C 534.335 192.662 533.231 193.011 532.098 193.02 C 531.231 192.949 530.411 192.597 529.762 192.019 C 529.57 191.816 529.402 191.592 529.261 191.351 L 528.927 191.018 L 528.26 189.683 C 528.124 189.358 528.012 189.023 527.926 188.681 L 527.592 187.346 L 526.925 185.344 C 526.469 184.086 526.079 182.804 525.757 181.506 L 525.423 179.837 L 525.089 178.836 L 524.755 177.668 C 524.353 175.571 523.795 173.507 523.087 171.493 L 521.918 168.323 L 520.75 165.319 L 520.75 163.817 C 520.75 163.483 520.75 163.15 521.084 162.816 C 521.084 162.482 521.418 162.315 521.585 161.981 L 521.752 161.648 L 522.085 161.314 L 522.419 160.98 C 522.834 160.656 523.281 160.376 523.754 160.146 L 524.422 159.812 L 524.755 159.812 L 525.423 159.645 C 525.999 159.61 526.573 159.725 527.092 159.979 C 527.938 160.44 528.633 161.135 529.094 161.981 L 529.428 162.649 L 529.928 163.65 L 530.262 164.651 C 530.853 166.392 531.3 168.178 531.597 169.991 L 532.432 174.998 L 532.432 175.331 L 532.765 173.162 L 533.433 169.491 L 533.767 167.155 L 534.601 164.151 L 535.102 162.816 L 535.102 162.482 L 535.268 161.981 L 535.268 161.815 L 535.602 161.314 L 535.936 160.313 C 536.326 159.199 537.02 158.217 537.938 157.476 L 538.439 157.142 L 538.94 156.975 L 539.273 156.975 L 539.44 156.641 Z  M 539.107 158.31 C 538.625 158.595 538.224 158.997 537.938 159.478 C 537.676 159.902 537.453 160.349 537.271 160.813 L 536.937 161.648 L 536.937 161.981 L 536.603 162.315 L 536.27 163.483 C 535.697 165.286 535.251 167.126 534.935 168.99 L 534.601 170.826 L 534.1 174.163 L 534.1 175.498 L 533.767 177.668 L 533.6 178.335 L 533.6 178.669 L 533.433 179.67 C 533.356 180.092 533.185 180.492 532.932 180.838 L 532.765 180.671 L 532.598 180.505 L 532.265 179.837 L 531.764 178.335 L 531.097 175.498 L 530.095 170.158 L 529.595 167.989 C 529.31 166.697 528.976 165.417 528.593 164.151 L 528.593 163.984 L 528.26 163.65 L 527.926 163.15 L 527.759 162.649 C 527.474 162.122 527.075 161.666 526.591 161.314 C 526.345 161.135 526.058 161.021 525.757 160.98 L 525.089 160.98 C 524.373 161.207 523.698 161.545 523.087 161.981 L 523.087 162.148 L 522.753 162.482 C 522.508 162.742 522.285 163.021 522.085 163.316 L 522.085 164.651 L 523.087 167.989 L 524.922 173.329 L 525.757 176.166 L 526.09 177.334 L 526.257 178.335 L 526.591 179.336 L 527.258 181.84 L 527.425 182.507 L 527.759 183.508 L 527.759 184.176 L 529.261 188.181 L 529.261 188.515 L 529.595 189.015 C 529.595 189.349 529.595 189.516 529.928 189.85 L 530.095 190.183 L 530.262 190.517 L 530.262 190.684 L 530.763 191.018 C 531.263 191.351 531.764 191.518 532.432 191.518 C 532.765 191.518 533.099 191.518 533.433 191.185 C 533.912 191.038 534.363 190.812 534.768 190.517 C 535.455 189.905 536.021 189.169 536.437 188.348 L 537.104 187.18 C 537.408 186.41 537.686 185.631 537.938 184.843 L 538.773 181.84 C 539.12 180.632 539.398 179.407 539.607 178.168 L 540.275 174.831 L 540.275 174.163 L 540.442 173.329 L 541.109 170.325 C 541.35 169.132 541.684 167.961 542.11 166.821 L 542.778 165.152 L 542.778 164.818 C 543.004 164.339 543.172 163.835 543.278 163.316 L 543.278 161.981 C 543.148 161.683 542.979 161.403 542.778 161.147 L 542.444 160.646 L 542.11 160.313 L 541.777 159.645 C 541.526 159.341 541.246 159.062 540.942 158.811 C 540.69 158.604 540.409 158.435 540.108 158.31 C 539.784 158.204 539.447 158.148 539.107 158.143 L 539.107 158.31 Z  M 564.138 152.636 L 564.972 152.636 L 566.641 153.137 C 568.024 153.933 568.905 155.381 568.977 156.975 L 568.977 157.309 C 569.166 158.086 569.108 158.903 568.81 159.645 L 568.31 160.48 C 567.889 161.033 567.305 161.442 566.641 161.648 C 567.308 161.648 567.809 161.815 568.31 162.148 C 569.576 162.825 570.443 164.065 570.646 165.486 L 570.646 167.488 C 570.521 167.789 570.352 168.07 570.145 168.323 L 569.645 168.823 C 568.733 169.779 567.58 170.471 566.307 170.826 L 564.472 171.326 L 561.802 171.994 L 560.967 172.161 L 559.632 172.495 L 559.298 172.661 L 558.965 172.828 C 558.185 173.166 557.539 173.753 557.129 174.497 C 556.826 174.997 556.708 175.588 556.795 176.166 L 556.795 176.666 L 556.962 177.501 L 557.296 178.335 C 557.637 178.184 557.972 178.017 558.297 177.835 L 559.298 177.167 C 560.155 176.645 560.99 176.089 561.802 175.498 L 562.302 174.998 C 563.769 174.05 565.336 173.267 566.975 172.661 L 567.809 172.328 L 568.977 172.328 L 570.312 172.495 C 570.624 172.671 570.906 172.896 571.147 173.162 C 571.814 173.83 572.315 174.831 572.315 175.832 L 572.315 177.167 C 572.177 178.119 571.836 179.03 571.313 179.837 L 571.147 180.171 L 570.312 181.172 C 569.099 182.424 567.757 183.542 566.307 184.51 C 565.64 184.51 565.139 185.01 564.638 185.344 L 564.138 185.678 L 561.802 187.013 C 559.958 187.951 557.992 188.625 555.961 189.015 L 553.792 189.015 C 553.432 188.906 553.093 188.737 552.79 188.515 C 552.499 188.44 552.219 188.327 551.956 188.181 L 551.622 187.847 C 551.077 187.445 550.622 186.934 550.287 186.345 L 549.787 185.511 L 549.286 184.676 L 548.952 183.508 C 548.682 182.801 548.459 182.076 548.285 181.339 L 547.951 179.67 C 547.728 177.84 547.561 176.004 547.45 174.163 L 547.283 170.826 C 547.289 169.157 547.289 167.488 547.283 165.82 C 547.416 162.807 547.978 159.829 548.952 156.975 L 548.952 156.641 L 549.453 156.308 L 549.62 156.141 L 549.953 155.807 L 552.123 154.973 L 553.792 154.472 L 556.128 153.805 L 557.129 153.638 C 558.777 153.246 560.449 152.967 562.135 152.803 L 563.804 152.636 L 564.305 152.636 L 564.138 152.636 Z  M 564.138 153.971 L 563.804 153.971 L 562.803 154.138 C 560.667 154.394 558.549 154.784 556.462 155.306 L 555.794 155.306 L 553.792 155.974 L 552.623 156.308 L 550.287 157.476 L 550.12 158.143 C 549.412 159.905 548.962 161.76 548.785 163.65 L 548.785 173.996 L 549.119 175.832 L 549.119 177.835 L 549.62 179.837 L 549.787 181.339 L 550.621 184.009 L 551.288 185.177 L 551.455 185.678 L 552.123 186.345 L 552.623 186.679 L 552.79 187.013 L 553.291 187.18 L 554.626 187.513 L 556.795 187.513 C 557.779 187.224 558.73 186.832 559.632 186.345 L 560.8 185.845 L 562.469 184.843 L 563.303 184.343 L 564.805 183.508 L 565.64 183.008 C 566.952 182.12 568.181 181.115 569.311 180.004 C 569.605 179.684 569.884 179.35 570.145 179.003 C 570.482 178.499 570.709 177.931 570.813 177.334 L 570.813 175.999 C 570.813 175.533 570.698 175.075 570.479 174.664 C 570.166 174.111 569.608 173.739 568.977 173.663 L 568.143 173.663 L 567.809 173.83 C 566.615 174.206 565.489 174.769 564.472 175.498 L 562.803 176.5 L 561.802 177.167 L 561.134 177.668 C 560.388 178.268 559.608 178.825 558.798 179.336 C 558.052 179.7 557.269 179.98 556.462 180.171 L 556.295 179.503 L 555.794 178.669 L 555.627 177.835 C 555.523 177.34 555.467 176.837 555.46 176.333 C 555.41 176.001 555.41 175.663 555.46 175.331 L 555.627 174.163 C 556.295 172.828 557.296 171.827 558.631 171.326 L 558.798 171.326 L 559.632 170.993 C 561.061 170.542 562.509 170.152 563.971 169.825 L 565.64 169.491 L 566.474 169.157 L 566.975 168.99 C 567.308 168.99 567.642 168.656 567.809 168.49 C 568.13 168.258 568.412 167.976 568.643 167.655 C 568.871 167.419 569.042 167.133 569.144 166.821 L 569.144 165.986 L 568.977 164.818 C 568.776 164.427 568.491 164.086 568.143 163.817 C 567.258 163.09 566.075 162.841 564.972 163.15 L 564.138 163.15 L 561.468 163.65 L 558.965 164.318 C 558.13 164.318 557.296 164.651 556.628 164.818 L 555.293 165.152 L 555.293 164.818 C 555.181 164.155 555.181 163.479 555.293 162.816 L 555.627 161.815 L 555.627 161.648 C 559.049 160.975 562.502 160.473 565.973 160.146 L 566.307 160.146 C 566.651 160.021 566.944 159.786 567.142 159.478 L 567.308 158.978 L 567.475 158.978 L 567.642 158.31 L 567.642 156.975 L 567.308 156.141 C 566.837 154.877 565.652 154.021 564.305 153.971 L 564.138 153.971 Z  M 587.667 148.631 C 588.701 148.67 589.719 148.896 590.671 149.299 C 591.64 149.718 592.54 150.281 593.341 150.968 C 595.232 152.71 596.42 155.084 596.678 157.643 L 596.678 158.143 L 596.512 159.478 C 596.512 160.48 596.011 161.314 595.677 162.148 C 595.123 163.362 594.392 164.486 593.508 165.486 L 591.505 167.488 L 592.173 167.822 L 593.842 168.823 L 595.677 169.991 L 597.346 171.326 C 598.325 172.06 599.22 172.9 600.016 173.83 C 600.144 174.043 600.255 174.267 600.35 174.497 L 600.683 174.998 L 600.683 175.498 C 600.859 176.04 600.971 176.6 601.017 177.167 L 601.017 178.001 C 600.968 178.46 600.856 178.909 600.683 179.336 C 600.451 179.988 600.048 180.564 599.515 181.005 C 599.168 181.295 598.773 181.521 598.347 181.673 C 597.217 182.095 595.973 182.095 594.843 181.673 C 593.98 181.395 593.184 180.941 592.507 180.338 L 591.338 179.17 L 589.837 177.668 L 589.002 176.833 L 588.502 176.5 L 587.667 175.832 L 584.33 173.83 L 584.663 175.165 L 584.663 177.167 L 584.83 178.335 L 584.83 180.505 C 584.729 181.025 584.56 181.529 584.33 182.006 C 583.96 182.81 583.384 183.5 582.661 184.009 C 582.176 184.38 581.599 184.611 580.992 184.676 L 580.325 184.676 L 578.823 184.51 C 578.206 184.288 577.639 183.948 577.154 183.508 C 576.345 182.736 575.767 181.754 575.485 180.671 L 575.485 179.003 C 575.152 178.168 575.152 177.334 575.152 176.333 L 575.152 171.326 L 574.985 168.323 L 574.985 165.653 L 574.818 164.651 L 574.317 162.983 L 574.317 161.981 L 573.983 161.314 L 573.983 160.813 C 573.773 159.876 573.606 158.929 573.483 157.976 L 573.483 156.308 C 573.434 154.882 573.844 153.479 574.651 152.303 C 575.165 151.585 575.854 151.01 576.653 150.634 L 577.154 150.634 L 578.489 150.133 L 580.992 149.466 L 583.996 148.965 L 585.665 148.631 L 587.667 148.631 Z  M 587.667 149.966 L 586.666 150.3 L 585.998 150.3 L 584.83 150.634 L 580.825 151.468 L 577.655 152.303 L 577.488 152.303 C 576.905 152.492 576.385 152.839 575.986 153.304 C 575.167 154.347 574.752 155.651 574.818 156.975 L 575.152 159.979 L 575.318 160.813 L 575.318 161.314 L 575.485 161.648 L 575.485 161.815 L 575.819 162.482 L 576.32 165.82 L 576.32 172.661 C 576.462 174.328 576.574 175.997 576.653 177.668 L 576.82 179.336 L 576.82 179.837 L 577.154 180.505 C 577.488 181.506 578.155 182.674 579.323 183.008 C 579.637 183.171 579.975 183.284 580.325 183.341 L 581.326 183.341 C 581.587 183.234 581.817 183.061 581.993 182.841 C 582.386 182.413 582.672 181.898 582.828 181.339 L 583.162 180.838 L 583.162 180.338 L 583.328 179.837 L 583.328 176.333 L 582.995 174.831 L 582.995 172.661 C 582.965 172.217 582.965 171.771 582.995 171.326 L 584.33 172.161 C 586.274 173.3 588.167 174.525 590.003 175.832 L 592.507 178.335 L 593.341 179.17 L 593.508 179.503 C 593.813 179.765 594.15 179.989 594.509 180.171 L 596.178 180.671 L 597.847 180.505 L 598.514 180.171 C 598.82 179.901 599.05 179.556 599.182 179.17 C 599.345 178.856 599.458 178.518 599.515 178.168 L 599.515 177 L 599.348 175.665 L 599.015 175.331 C 598.34 174.249 597.427 173.336 596.345 172.661 L 595.177 171.66 L 594.843 171.493 C 592.891 170.098 590.826 168.87 588.668 167.822 L 589.169 167.488 C 590.308 166.766 591.322 165.864 592.173 164.818 L 593.341 163.483 C 593.836 162.762 594.229 161.976 594.509 161.147 C 594.966 160.098 595.139 158.947 595.01 157.81 L 595.01 156.975 C 594.629 154.785 593.437 152.819 591.672 151.468 C 590.915 150.931 590.067 150.535 589.169 150.3 C 588.729 150.207 588.283 150.151 587.834 150.133 L 587.5 150.133 L 587.667 149.966 Z  M 511.072 170.325 L 506.065 171.16 L 505.898 171.493 L 507.734 170.993 L 509.903 170.492 L 510.738 170.492 L 511.072 170.325 Z  M 587.333 156.141 L 587.667 156.141 C 588.168 156.475 588.668 156.975 588.668 157.643 L 588.668 158.143 C 588.651 158.607 588.537 159.061 588.335 159.478 C 587.872 160.121 587.308 160.684 586.666 161.147 L 586.332 161.481 L 585.832 161.815 C 584.69 162.622 583.458 163.294 582.16 163.817 L 582.16 163.15 L 581.827 161.981 L 581.66 160.313 L 581.66 158.644 C 581.668 158.477 581.668 158.31 581.66 158.143 L 581.66 157.643 L 581.493 157.476 L 581.493 157.309 L 585.665 156.475 C 585.887 156.466 586.11 156.466 586.332 156.475 L 587.167 156.141 L 587.333 156.141 Z  M 561.802 162.148 C 560.133 162.148 558.464 162.649 556.795 162.816 L 556.795 163.15 L 558.464 162.816 L 560.633 162.315 L 561.635 162.148 L 561.802 162.148 Z  M 586.666 157.81 L 583.328 158.477 L 582.995 158.477 L 582.995 159.979 L 583.162 161.147 L 583.162 161.648 C 584.224 161.077 585.23 160.406 586.165 159.645 L 586.499 159.311 C 586.831 158.996 587.063 158.59 587.167 158.143 L 587.167 157.81 L 586.666 157.81 Z  M 510.571 113.588 L 511.238 113.588 L 512.24 113.755 C 513.742 114.422 514.91 115.59 515.577 117.092 C 516.016 118.17 516.351 119.288 516.578 120.43 L 516.745 121.097 L 516.745 122.766 L 516.912 123.934 L 516.912 124.935 L 517.079 127.271 L 517.079 128.106 L 517.246 129.107 L 517.246 129.608 L 517.413 130.442 C 517.614 132.944 517.558 135.461 517.246 137.951 C 517.086 138.856 516.863 139.748 516.578 140.621 L 516.412 141.122 C 515.99 142.456 515.43 143.742 514.743 144.96 C 514.21 145.797 513.531 146.531 512.74 147.13 C 512.098 147.653 511.362 148.05 510.571 148.298 L 508.568 148.298 C 507.547 148.128 506.577 147.729 505.732 147.13 C 505.132 146.741 504.573 146.294 504.063 145.795 L 503.896 146.295 L 503.729 146.629 L 503.062 147.797 C 502.721 148.282 502.329 148.73 501.893 149.132 C 501.051 149.872 500.003 150.338 498.89 150.467 L 496.887 150.467 C 494.547 150.018 492.529 148.55 491.38 146.462 C 490.457 143.863 489.786 141.18 489.378 138.452 L 489.211 135.448 L 489.211 134.781 C 489.23 132.723 489.23 130.664 489.211 128.606 C 489.211 127.438 489.211 126.103 489.545 124.935 L 489.878 123.266 L 490.045 122.432 C 490.295 121.146 490.746 119.907 491.38 118.761 C 491.987 117.626 492.916 116.697 494.05 116.091 L 494.217 116.091 C 494.872 115.905 495.565 115.905 496.22 116.091 L 497.054 116.258 L 497.555 116.591 C 498.389 117.259 498.723 118.26 499.057 119.095 C 499.162 119.645 499.218 120.203 499.223 120.763 L 499.557 120.596 L 499.724 120.263 C 500.125 119.962 500.578 119.736 501.059 119.595 L 501.56 119.428 L 503.228 119.428 C 504.331 119.548 505.346 120.085 506.065 120.93 L 506.566 121.598 L 507.233 123.1 L 507.233 117.926 L 507.4 117.259 L 507.4 116.925 L 507.734 115.924 C 507.974 115.186 508.441 114.544 509.069 114.088 L 509.737 113.755 L 510.07 113.755 L 510.404 113.588 L 510.738 113.588 L 510.571 113.588 Z  M 510.404 115.09 L 509.903 115.09 C 509.683 115.266 509.51 115.496 509.403 115.757 C 509.239 116.071 509.126 116.409 509.069 116.758 L 508.902 117.259 L 508.902 118.26 L 508.735 118.761 L 508.735 124.935 L 508.902 126.27 L 509.069 129.941 L 509.069 136.45 L 508.902 136.783 L 508.568 136.116 L 508.235 134.781 C 507.979 134.068 507.756 133.344 507.567 132.611 L 507.4 130.943 L 507.4 130.776 L 507.233 130.108 L 507.067 129.274 L 506.733 127.605 L 506.733 126.938 L 506.566 126.27 L 506.232 125.269 L 506.232 124.435 L 505.898 123.767 C 505.689 123.044 505.35 122.365 504.897 121.765 C 504.384 121.185 503.666 120.826 502.895 120.763 L 501.727 120.763 L 501.226 121.097 C 500.656 121.396 500.19 121.862 499.891 122.432 L 499.557 123.266 L 499.557 123.6 L 499.39 124.601 L 499.39 126.437 L 499.057 128.273 L 498.89 130.943 C 498.566 133.533 498.064 136.098 497.388 138.619 L 497.388 138.118 C 497.163 137.581 496.995 137.022 496.887 136.45 L 496.887 129.608 L 497.221 127.605 L 497.221 126.771 L 497.555 125.936 L 497.555 124.935 L 497.888 121.598 L 497.888 120.763 C 497.861 119.942 497.632 119.139 497.221 118.427 C 496.927 117.929 496.447 117.568 495.886 117.426 L 494.718 117.426 L 494.384 117.76 C 494.151 117.849 493.928 117.961 493.717 118.093 C 493.3 118.533 492.961 119.041 492.715 119.595 C 492.224 120.669 491.833 121.787 491.547 122.933 L 491.047 125.269 C 490.485 128.35 490.317 131.49 490.546 134.614 L 490.88 137.951 C 491.215 140.499 491.773 143.011 492.548 145.461 L 492.715 145.628 L 492.882 145.961 L 493.216 146.462 C 494.041 147.587 495.214 148.408 496.553 148.798 C 497.372 149.026 498.238 149.026 499.057 148.798 C 499.508 148.834 499.962 148.777 500.392 148.631 C 501.693 147.73 502.684 146.447 503.228 144.96 C 503.501 144.197 503.724 143.416 503.896 142.624 L 504.23 143.125 L 505.398 144.793 C 506.094 145.533 506.95 146.103 507.901 146.462 C 508.235 146.796 508.735 146.796 509.069 146.963 C 509.879 147.009 510.686 146.836 511.405 146.462 C 511.903 146.205 512.354 145.867 512.74 145.461 C 513.345 144.878 513.852 144.202 514.242 143.458 C 514.762 142.396 515.154 141.275 515.41 140.121 L 515.744 139.12 L 516.078 137.117 C 516.396 135.356 516.508 133.564 516.412 131.777 L 516.412 131.11 L 516.245 129.775 L 516.245 129.274 L 516.078 128.273 L 516.078 127.772 L 515.744 124.435 L 515.744 120.596 C 515.448 119.638 515.114 118.691 514.743 117.76 L 514.242 116.925 C 513.71 116.157 512.951 115.574 512.073 115.256 C 511.749 115.152 511.412 115.096 511.072 115.09 L 510.738 115.09 L 510.404 115.09 Z  M 536.103 109.416 C 536.787 109.373 537.472 109.487 538.105 109.75 L 538.94 110.25 C 540.079 111.206 540.991 112.403 541.61 113.755 L 541.943 114.589 C 542.617 116.143 543.12 117.766 543.445 119.428 L 543.445 122.265 L 543.612 122.599 L 543.612 122.766 L 543.779 125.436 L 544.28 128.94 L 544.78 131.276 L 544.78 131.944 L 545.114 133.946 L 545.114 136.116 C 545.173 136.838 545.173 137.563 545.114 138.285 L 544.78 138.953 L 544.78 139.453 L 544.447 139.954 L 544.113 140.788 L 543.779 141.456 C 543.344 141.995 542.766 142.4 542.11 142.624 C 541.009 143.057 539.766 142.933 538.773 142.29 C 538.317 142.043 537.919 141.701 537.605 141.289 L 537.438 141.122 L 537.271 140.788 C 536.755 140.019 536.361 139.175 536.103 138.285 L 535.936 137.618 L 535.769 137.117 L 535.769 136.616 L 535.435 135.281 L 535.435 134.28 L 535.268 133.613 L 534.935 132.611 L 534.267 132.611 L 533.767 132.778 L 533.433 132.778 L 532.265 133.112 L 531.764 133.279 L 531.597 133.279 L 530.93 133.446 L 530.763 133.446 L 531.097 135.615 C 531.399 136.936 531.621 138.273 531.764 139.62 L 531.764 140.955 C 531.73 141.524 531.618 142.086 531.43 142.624 C 531.43 143.125 531.097 143.625 530.763 144.126 C 530.573 144.379 530.348 144.604 530.095 144.793 C 529.761 145.101 529.362 145.329 528.927 145.461 L 526.591 145.461 C 526.24 145.331 525.904 145.163 525.59 144.96 C 524.876 144.527 524.253 143.96 523.754 143.291 C 522.991 142.42 522.422 141.396 522.085 140.288 L 522.085 139.453 L 521.752 137.951 L 521.752 136.783 L 521.418 134.28 L 521.084 130.609 L 521.084 130.108 L 520.917 125.77 L 520.917 122.432 L 520.583 120.596 L 520.583 117.426 C 520.68 116.524 520.847 115.631 521.084 114.756 L 521.251 114.255 C 521.501 113.653 521.839 113.091 522.252 112.586 C 522.725 112.012 523.367 111.603 524.088 111.418 L 525.423 111.418 C 526.604 111.475 527.727 111.948 528.593 112.753 L 528.76 113.087 L 529.595 114.088 C 530.29 115.131 530.694 116.341 530.763 117.593 L 530.763 119.595 L 530.596 121.598 L 530.596 123.266 L 532.432 122.933 L 534.1 122.599 L 534.1 121.931 L 533.6 119.929 L 533.266 118.427 L 533.266 117.76 L 532.932 116.091 L 532.932 113.921 C 532.857 113.368 532.857 112.806 532.932 112.253 L 533.099 111.919 L 533.433 111.251 C 533.767 110.51 534.361 109.917 535.102 109.583 L 535.769 109.416 L 536.437 109.416 L 536.103 109.416 Z  M 535.936 110.751 L 535.435 110.751 C 534.771 111.053 534.323 111.692 534.267 112.42 L 534.267 112.586 L 534.1 113.087 C 534.088 113.254 534.088 113.421 534.1 113.588 L 534.1 115.256 C 534.216 116.146 534.327 117.036 534.434 117.926 L 534.768 119.929 L 534.935 121.097 L 535.268 123.1 L 535.268 123.934 L 534.434 123.934 L 532.765 124.268 L 530.262 124.768 L 529.094 124.935 L 528.593 124.935 L 528.593 122.432 L 528.76 121.765 L 528.76 119.595 L 528.927 118.594 L 528.927 117.426 C 528.776 115.937 528.059 114.563 526.925 113.588 C 526.369 113.094 525.664 112.801 524.922 112.753 L 524.088 112.753 L 523.754 112.92 C 523.501 113.042 523.275 113.212 523.087 113.421 C 522.899 113.566 522.731 113.734 522.586 113.921 C 522.446 114.302 522.335 114.693 522.252 115.09 L 521.918 115.924 L 521.752 117.593 L 521.752 121.097 L 521.918 123.1 L 521.918 124.768 L 522.252 129.107 L 522.252 130.108 C 522.447 133.466 522.837 136.809 523.42 140.121 C 523.732 141.364 524.434 142.475 525.423 143.291 C 526.09 143.792 526.925 144.126 527.592 144.126 L 528.593 144.126 C 529.059 143.872 529.415 143.456 529.595 142.958 L 529.762 142.123 L 529.928 141.79 L 530.095 140.621 L 530.095 138.118 L 529.762 136.616 L 529.428 134.948 L 528.76 132.445 L 529.595 132.278 L 531.097 131.944 L 531.597 131.944 L 532.932 131.61 L 533.266 131.61 L 533.933 131.276 L 534.434 131.276 L 535.435 131.11 L 535.936 131.11 L 535.936 131.276 C 536.32 132.13 536.6 133.026 536.77 133.946 L 536.77 134.447 L 537.104 136.116 L 537.104 136.783 L 537.271 137.284 C 537.403 137.85 537.571 138.407 537.772 138.953 L 538.272 139.954 L 538.606 140.288 L 538.773 140.455 L 539.273 140.955 C 539.62 141.208 540.019 141.379 540.442 141.456 L 541.61 141.289 L 541.943 141.122 L 542.444 140.621 L 542.778 140.121 C 542.977 139.746 543.145 139.355 543.278 138.953 L 543.278 138.619 C 543.447 138.133 543.559 137.629 543.612 137.117 L 543.779 136.116 L 543.779 135.281 C 543.567 133.556 543.345 131.831 543.112 130.108 L 542.945 129.107 L 542.778 128.44 L 542.444 125.936 L 542.444 125.269 L 542.11 122.265 L 542.11 120.263 L 541.943 119.595 C 541.824 118.574 541.601 117.567 541.276 116.591 C 540.973 115.48 540.524 114.414 539.941 113.421 L 539.44 112.92 C 539.44 112.586 539.107 112.253 538.773 112.086 C 538.342 111.503 537.767 111.043 537.104 110.751 L 535.936 110.751 Z  M 558.297 105.411 C 559.35 105.448 560.38 105.734 561.301 106.245 C 561.528 106.346 561.751 106.458 561.968 106.579 L 562.469 106.913 C 563.675 107.775 564.649 108.921 565.306 110.25 L 565.64 110.918 L 565.973 111.752 C 565.973 112.253 566.307 112.586 566.474 112.92 L 566.641 113.588 L 566.808 114.088 L 568.31 117.76 L 570.145 123.1 L 572.148 128.44 L 572.148 128.773 L 572.482 129.608 L 572.648 130.275 L 572.648 130.609 L 572.982 131.11 L 572.982 131.443 L 573.316 132.278 C 573.47 133.273 573.47 134.286 573.316 135.281 C 573.054 136.457 572.333 137.478 571.313 138.118 C 570.646 138.494 569.907 138.721 569.144 138.786 C 568.756 138.831 568.364 138.831 567.976 138.786 C 567.442 138.742 566.927 138.57 566.474 138.285 L 566.14 137.951 L 565.807 137.785 L 565.64 137.451 C 565.428 137.082 565.26 136.69 565.139 136.283 L 564.638 135.115 L 564.472 134.447 C 564.312 133.889 564.145 133.332 563.971 132.778 L 563.971 132.611 L 563.303 132.611 L 562.302 132.945 L 560.133 133.613 L 559.966 133.613 L 558.965 134.113 L 558.631 134.113 L 557.797 134.614 C 557.556 134.755 557.332 134.923 557.129 135.115 L 556.795 135.448 L 556.795 137.618 C 556.795 138.118 556.795 138.619 556.462 139.286 C 556.462 139.62 556.128 139.954 555.961 140.121 C 555.741 140.451 555.457 140.735 555.127 140.955 L 554.626 141.122 C 554.093 141.328 553.528 141.441 552.957 141.456 C 551.985 141.408 551.051 141.058 550.287 140.455 C 549.643 139.994 549.079 139.43 548.618 138.786 C 548.063 138.039 547.665 137.188 547.45 136.283 L 547.45 134.948 C 547.36 133.833 547.416 132.711 547.617 131.61 L 547.951 130.442 L 548.285 129.274 L 549.119 125.936 L 549.62 124.268 L 549.62 123.6 L 549.787 123.1 L 549.787 122.599 L 550.12 121.264 L 550.287 120.096 L 550.788 117.593 L 551.455 114.088 L 551.789 113.421 L 551.789 112.92 L 552.29 111.585 L 552.29 111.085 C 552.624 109.874 553.191 108.741 553.958 107.747 C 554.67 106.76 555.657 106.006 556.795 105.578 L 557.129 105.578 C 557.462 105.544 557.797 105.544 558.13 105.578 L 558.464 105.578 L 558.297 105.411 Z  M 557.963 106.913 L 557.296 106.913 L 556.962 107.08 L 556.628 107.246 C 555.973 107.551 555.401 108.009 554.96 108.581 C 554.519 109.31 554.182 110.096 553.958 110.918 L 553.458 111.919 L 553.124 113.254 L 552.957 113.755 L 552.957 114.255 L 552.29 116.758 L 551.789 119.762 L 551.622 120.93 L 551.122 123.934 L 550.621 125.603 L 549.953 128.106 L 549.453 130.108 C 549.076 131.477 548.798 132.872 548.618 134.28 C 548.589 134.836 548.589 135.393 548.618 135.949 C 548.873 136.957 549.391 137.878 550.12 138.619 C 550.66 139.231 551.35 139.691 552.123 139.954 C 552.4 139.989 552.68 139.989 552.957 139.954 L 553.291 139.954 L 553.958 139.787 C 554.292 139.787 554.626 139.453 554.793 139.286 C 554.942 139.085 555.055 138.859 555.127 138.619 L 555.127 136.45 L 555.293 135.782 L 555.293 135.281 L 555.794 134.447 L 555.961 134.28 C 556.392 133.852 556.902 133.512 557.463 133.279 L 558.464 132.778 L 559.465 132.445 L 559.966 132.278 L 560.633 132.111 L 562.302 131.61 L 563.637 131.276 L 564.138 131.276 C 564.471 131.243 564.806 131.243 565.139 131.276 L 565.473 132.445 L 566.14 134.614 L 566.474 135.615 L 566.474 135.949 L 566.975 136.783 L 567.142 136.95 L 567.475 137.117 L 567.809 137.284 L 568.31 137.451 L 569.144 137.451 C 569.645 137.451 570.145 137.451 570.479 137.117 C 571.026 136.863 571.489 136.457 571.814 135.949 C 571.996 135.583 572.109 135.187 572.148 134.781 L 572.148 134.113 L 571.981 132.445 L 571.814 131.944 L 571.814 131.777 L 571.647 131.443 L 571.647 131.11 L 571.147 130.108 L 571.147 129.775 C 570.452 127.707 569.728 125.648 568.977 123.6 L 566.975 118.427 C 566.975 117.926 565.807 115.09 565.64 114.756 L 565.64 114.589 L 565.306 114.088 L 565.139 113.421 L 564.638 112.253 C 564.592 112.028 564.536 111.805 564.472 111.585 L 564.138 111.085 L 564.138 110.751 L 563.47 110.083 C 562.996 109.451 562.434 108.889 561.802 108.415 L 561.468 108.081 L 560.8 107.747 C 560.075 107.368 559.28 107.141 558.464 107.08 L 558.297 107.08 L 557.963 106.913 Z  M 589.169 100.905 L 590.17 101.072 C 590.905 101.25 591.589 101.593 592.173 102.073 L 592.507 102.073 C 592.507 102.407 592.84 102.574 593.007 102.741 L 593.842 103.575 C 594.082 103.929 594.252 104.325 594.342 104.743 L 594.342 107.08 C 593.831 108.046 593.007 108.81 592.006 109.249 L 591.505 109.583 C 590.588 109.95 589.638 110.23 588.668 110.417 L 587 110.751 L 587 130.108 C 586.764 131.718 586.315 133.289 585.665 134.781 C 585.265 135.615 584.626 136.312 583.829 136.783 C 583.567 136.932 583.287 137.044 582.995 137.117 L 582.16 137.117 C 580.965 137.179 579.786 136.825 578.823 136.116 C 578.263 135.662 577.807 135.093 577.488 134.447 C 577.332 134.072 577.22 133.68 577.154 133.279 L 577.154 123.266 L 577.321 122.098 L 577.321 120.263 C 577.11 117.689 576.776 115.128 576.32 112.586 L 571.647 113.421 L 570.98 113.421 L 570.312 113.254 C 570 113.078 569.718 112.852 569.478 112.586 L 569.144 112.086 L 568.977 111.752 L 568.977 111.585 C 568.622 111.071 568.341 110.509 568.143 109.916 L 568.143 109.249 L 567.976 108.748 L 567.976 108.581 C 568.042 107.975 568.272 107.397 568.643 106.913 C 568.989 106.378 569.444 105.923 569.978 105.578 C 570.451 105.297 570.955 105.073 571.48 104.91 L 573.983 104.243 C 576.795 103.64 579.578 102.916 582.327 102.073 L 583.996 101.74 L 585.998 101.406 L 588.335 101.072 L 589.169 101.072 L 589.169 100.905 Z  M 588.502 102.574 L 586.165 102.741 L 584.163 103.075 L 581.66 103.742 L 579.824 104.076 L 576.82 104.91 C 575.986 104.91 575.152 105.244 574.484 105.411 L 571.814 106.078 L 571.313 106.412 L 570.98 106.412 C 570.514 106.645 570.113 106.989 569.812 107.413 L 569.478 108.081 L 569.478 108.915 C 569.598 109.507 569.824 110.072 570.145 110.584 L 570.145 110.751 L 570.479 111.251 L 570.813 111.752 C 571.026 111.845 571.267 111.845 571.48 111.752 C 572.482 111.752 573.65 111.418 574.818 111.085 L 577.321 110.584 L 577.488 111.418 C 578.19 114.209 578.637 117.057 578.823 119.929 L 578.823 125.77 L 578.656 127.438 L 578.656 133.279 C 578.768 133.722 578.998 134.126 579.323 134.447 C 579.991 135.281 580.992 135.782 581.993 135.782 L 582.661 135.782 L 583.328 135.448 L 583.662 135.115 C 584.33 134.447 584.663 133.446 584.997 132.611 L 585.498 129.107 L 585.498 109.416 L 586.332 109.416 L 587.5 109.082 L 588.335 109.082 C 589.31 108.838 590.259 108.503 591.172 108.081 C 591.848 107.811 592.429 107.346 592.84 106.746 C 592.989 106.434 593.047 106.087 593.007 105.745 L 593.007 105.077 C 592.893 104.683 592.66 104.333 592.34 104.076 C 592.129 103.894 591.906 103.726 591.672 103.575 L 591.505 103.408 L 591.172 103.075 C 590.96 102.943 590.736 102.831 590.504 102.741 C 590.02 102.566 589.515 102.453 589.002 102.407 L 588.502 102.407 L 588.502 102.574 Z  M 559.298 116.425 L 559.966 118.093 C 560.728 119.86 561.288 121.707 561.635 123.6 L 561.635 124.101 L 561.468 124.601 C 561.065 124.998 560.531 125.236 559.966 125.269 L 559.298 125.269 L 558.798 125.436 L 557.463 125.603 L 556.962 125.603 L 556.962 125.436 L 556.795 124.435 L 556.795 123.6 L 556.962 121.598 L 557.296 120.096 L 557.463 118.928 C 557.795 117.773 558.243 116.655 558.798 115.59 L 559.298 116.425 Z  M 558.965 119.762 L 558.631 120.43 L 558.631 121.264 L 558.297 123.934 L 559.132 123.934 C 559.528 123.851 559.919 123.74 560.3 123.6 C 560.016 122.217 559.568 120.872 558.965 119.595 L 558.965 119.428 L 558.965 119.595 L 558.965 119.762 Z " fill-rule="evenodd" fill="rgb(55,41,40)"/></g></g></svg>